HIERARCHY
ROOT Root
{
	OFFSET 0.00000 0.00000 0.00000
	CHANNELS 6 Xposition Yposition Zposition Zrotation Xrotation Yrotation
	JOINT Hips
	{
		OFFSET 0 0 0	
		CHANNELS 3 Zrotation Xrotation Yrotation
		JOINT Spine
		{
			OFFSET 0 4 0	
			CHANNELS 3 Zrotation Xrotation Yrotation
			JOINT Spine1
			{
				OFFSET 0 19.4 0	
				CHANNELS 3 Zrotation Xrotation Yrotation
				JOINT Spine2
				{
					OFFSET 0 16.6 0	
					CHANNELS 3 Zrotation Xrotation Yrotation
					JOINT LeftCollar
					{
						OFFSET 0 10 0	
						CHANNELS 3 Zrotation Xrotation Yrotation
						JOINT LeftArm
						{
							OFFSET 15.6 -2 3	
							CHANNELS 3 Zrotation Xrotation Yrotation
							JOINT LeftForeArm
							{
								OFFSET 3.5 -27 -1	
								CHANNELS 3 Zrotation Xrotation Yrotation
								JOINT LeftHand
								{
									OFFSET 1 -27 1	
									CHANNELS 3 Zrotation Xrotation Yrotation
									End Site
									{
										OFFSET 0 -15 0
									}
								}
							}
						}
					}
					JOINT RightCollar
					{
						OFFSET 0 10 0	
						CHANNELS 3 Zrotation Xrotation Yrotation
						JOINT RightArm
						{
							OFFSET -15.6 -2 3	
							CHANNELS 3 Zrotation Xrotation Yrotation
							JOINT RightForeArm
							{
								OFFSET -3.5 -27 -1	
								CHANNELS 3 Zrotation Xrotation Yrotation
								JOINT RightHand
								{
									OFFSET -1 -27 1	
									CHANNELS 3 Zrotation Xrotation Yrotation
									End Site
									{
										OFFSET 0 -15 0
									}
								}
							}
						}
					}
					JOINT Neck
					{
						OFFSET 0 10 0	
						CHANNELS 3 Zrotation Xrotation Yrotation
						JOINT Head
						{
							OFFSET 0 12.7 3	
							CHANNELS 3 Zrotation Xrotation Yrotation
							End Site
							{
								OFFSET 0 12.7 3
							}
						}
					}
				}
			}
		}
	}
	JOINT LeftHip
	{
		OFFSET 0 0 0	
		CHANNELS 3 Zrotation Xrotation Yrotation
		JOINT LeftUpLeg
		{
			OFFSET 8.8 -6 0	
			CHANNELS 3 Zrotation Xrotation Yrotation
			JOINT LeftLeg
			{
				OFFSET 0 -39 2	
				CHANNELS 3 Zrotation Xrotation Yrotation
				JOINT LeftFoot
				{
					OFFSET 0 -43 -2	
					CHANNELS 3 Zrotation Xrotation Yrotation
					JOINT LeftFootFront
					{
						OFFSET 0 -7 8.5	
						CHANNELS 3 Zrotation Xrotation Yrotation
						End Site
						{
							OFFSET 0 -0.5 9
						}
					}
				}
				JOINT LeftHeel
				{
					OFFSET 0 -43 -2	
					CHANNELS 3 Zrotation Xrotation Yrotation
					End Site
					{
						OFFSET 0 -7.5 -5
					}
				}
			}
		}
	}
	JOINT RightHip
	{
		OFFSET 0 0 0	
		CHANNELS 3 Zrotation Xrotation Yrotation
		JOINT RightUpLeg
		{
			OFFSET -8.8 -6 0	
			CHANNELS 3 Zrotation Xrotation Yrotation
			JOINT RightLeg
			{
				OFFSET 0 -39 2	
				CHANNELS 3 Zrotation Xrotation Yrotation
				JOINT RightFoot
				{
					OFFSET 0 -43 -2	
					CHANNELS 3 Zrotation Xrotation Yrotation
					JOINT RightFootFront
					{
						OFFSET 0 -7 8.5	
						CHANNELS 3 Zrotation Xrotation Yrotation
						End Site
						{
							OFFSET 0 -0.5 9
						}
					}
				}
				JOINT RightHeel
				{
					OFFSET 0 -43 -2	
					CHANNELS 3 Zrotation Xrotation Yrotation
					End Site
					{
						OFFSET 0 -7.5 -5
					}
				}
			}
		}
	}
}
MOTION
Frames: 10
Frame Time: 0.008
-32.677 83.221 11.583 -0 0 -0 17.245 25.983 21.83 -12.845 -3.2775 -6.0201 -12.845 -3.2775 -6.0201 -10.766 -2.8453 -5.0088 -0 0 -0 -20.357 -51.96 -38.689 -7.8 -48.585 -36.478 -13.12 1.9194 11.406 -0 0 -0 30.32 -73.01 35.213 64.603 -51.702 59.314 11.68 -8.8183 -22.453 0.55139 -0.064834 35.988 -10.221 -2.958 31.006 17.245 25.983 21.83 11.14 -20.845 4.1341 -111.55 50.098 95.323 5.6664 -19.259 23.556 0.069244 -0.0355 0.09134 -0 0 -0 17.245 25.983 21.83 29.696 -21.792 -18.607 -45.173 -14.65 -5.9148 -7.3612 -3.9083 -4.9947 0.002286 0.0016363 -0.0026238 -0 0 -0 
-32.568 83.241 11.539 -0 0 -0 16.636 26.204 23.056 -12.713 -3.3819 -6.3309 -12.713 -3.3819 -6.3309 -10.653 -2.9368 -5.2688 -0 0 -0 -19.812 -51.486 -38.216 -8.8822 -49.366 -37.508 -13.379 2.1679 11.247 -0 0 -0 28.256 -73.268 34.062 65.603 -51.663 60.383 12.149 -8.752 -21.841 0.3491 0.091909 36.796 -10.297 -2.8773 31.546 16.636 26.204 23.056 11.353 -19.386 3.2086 -109.25 50.463 93.536 4.8122 -19.682 22.82 0.063149 -0.048121 0.086141 -0 0 -0 16.636 26.204 23.056 29.696 -22.604 -19.373 -45.096 -14.401 -5.5765 -7.306 -4.1776 -5.2877 0.0019484 0.0020328 -0.0025766 -0 0 -0 
-32.455 83.264 11.498 -0 0 -0 16.04 26.438 24.303 -12.595 -3.4942 -6.6368 -12.595 -3.4942 -6.6368 -10.551 -3.0348 -5.5245 -0 0 -0 -19.244 -50.97 -37.722 -10.02 -50.124 -38.553 -13.677 2.4354 11.049 -0 0 -0 25.935 -73.511 32.663 66.626 -51.592 61.444 12.6 -8.6587 -21.24 0.16454 0.26853 37.55 -10.361 -2.7834 32.036 16.04 26.438 24.303 11.576 -18.005 2.2954 -106.67 50.743 91.492 3.8092 -19.848 21.913 0.056934 -0.05507 0.075172 -0 0 -0 16.04 26.438 24.303 29.661 -23.43 -20.152 -45.034 -14.152 -5.2234 -7.2501 -4.4508 -5.6025 0.0014899 0.0023563 -0.0025355 -0 0 -0 
-32.339 83.291 11.457 -0 0 -0 15.456 26.677 25.567 -12.488 -3.6109 -6.9357 -12.488 -3.6109 -6.9357 -10.459 -3.1365 -5.7742 -0 0 -0 -18.653 -50.417 -37.209 -11.211 -50.862 -39.615 -14.024 2.7251 10.795 -0 0 -0 23.37 -73.736 31.022 67.67 -51.483 62.49 13.032 -8.5401 -20.653 -0.0033656 0.46301 38.249 -10.416 -2.6755 32.477 15.456 26.677 25.567 11.812 -16.7 1.395 -103.85 50.928 89.228 2.6644 -19.747 20.862 0.052366 -0.054797 0.060602 -0 0 -0 15.456 26.677 25.567 29.583 -24.268 -20.954 -44.983 -13.901 -4.8514 -7.1928 -4.7288 -5.9379 0.0010173 0.0026467 -0.0024989 -0 0 -0 
-32.22 83.32 11.417 -0 0 -0 14.887 26.916 26.849 -12.392 -3.7285 -7.2256 -12.392 -3.7285 -7.2256 -10.377 -3.2388 -6.0163 -0 0 -0 -18.042 -49.829 -36.677 -12.455 -51.583 -40.697 -14.428 3.0415 10.479 -0 0 -0 20.576 -73.943 29.151 68.73 -51.328 63.514 13.445 -8.3985 -20.082 -0.15608 0.67296 38.889 -10.462 -2.5532 32.867 14.887 26.916 26.849 12.067 -15.462 0.51105 -100.81 51.01 86.776 1.3937 -19.381 19.709 0.050093 -0.047037 0.044896 -0 0 -0 14.887 26.916 26.849 29.461 -25.116 -21.784 -44.941 -13.644 -4.4593 -7.1332 -5.0128 -6.2912 0.00059643 0.003015 -0.002495 -0 0 -0 
-32.099 83.353 11.375 -0 0 -0 14.331 27.148 28.146 -12.307 -3.8434 -7.5042 -12.307 -3.8434 -7.5042 -10.303 -3.3387 -6.249 -0 0 -0 -17.41 -49.213 -36.13 -13.748 -52.289 -41.802 -14.894 3.3884 10.103 -0 0 -0 17.575 -74.131 27.066 69.798 -51.122 64.51 13.841 -8.237 -19.534 -0.29554 0.8957 39.47 -10.499 -2.4161 33.209 14.331 27.148 28.146 12.342 -14.284 -0.34914 -97.603 50.982 84.151 0.021541 -18.763 18.512 0.049172 -0.033126 0.030526 -0 0 -0 14.331 27.148 28.146 29.294 -25.968 -22.643 -44.907 -13.38 -4.0491 -7.0706 -5.3038 -6.6597 0.00028908 0.0034868 -0.0025264 -0 0 -0 
-31.975 83.388 11.331 -0 0 -0 13.788 27.369 29.454 -12.23 -3.9529 -7.769 -12.23 -3.9529 -7.769 -10.236 -3.4338 -6.4701 -0 0 -0 -16.759 -48.572 -35.569 -15.089 -52.981 -42.932 -15.422 3.7683 9.6821 -0 0 -0 14.381 -74.304 24.779 70.866 -50.857 65.468 14.221 -8.0585 -19.014 -0.42416 1.1289 39.994 -10.531 -2.2643 33.505 13.788 27.369 29.454 12.637 -13.155 -1.1741 -94.234 50.839 81.36 -1.4221 -17.916 17.335 0.048103 -0.015668 0.019303 -0 0 -0 13.788 27.369 29.454 29.085 -26.818 -23.531 -44.886 -13.108 -3.6251 -7.0046 -5.6025 -7.0405 0.00017298 0.0039448 -0.0026227 -0 0 -0 
-31.85 83.425 11.284 -0 0 -0 13.257 27.576 30.77 -12.159 -4.0556 -8.0172 -12.159 -4.0556 -8.0172 -10.175 -3.5231 -6.6774 -0 0 -0 -16.088 -47.908 -34.997 -16.479 -53.661 -44.093 -16.008 4.1809 9.2359 -0 0 -0 11.005 -74.461 22.298 71.927 -50.527 66.382 14.586 -7.8659 -18.526 -0.54476 1.3709 40.459 -10.556 -2.098 33.757 13.257 27.576 30.77 12.948 -12.069 -1.947 -90.722 50.576 78.4 -2.9053 -16.871 16.237 0.045717 0.0021675 0.012372 -0 0 -0 13.257 27.576 30.77 28.843 -27.66 -24.441 -44.879 -12.831 -3.1923 -6.9349 -5.9083 -7.4316 0.00033051 0.0042832 -0.0027976 -0 0 -0 
-31.724 83.465 11.232 -0 0 -0 12.733 27.768 32.093 -12.093 -4.1525 -8.2465 -12.093 -4.1525 -8.2465 -10.117 -3.6072 -6.8688 -0 0 -0 -15.395 -47.222 -34.413 -17.923 -54.326 -45.289 -16.639 4.6227 8.7874 -0 0 -0 7.4531 -74.598 19.628 72.973 -50.127 67.244 14.937 -7.6609 -18.075 -0.6604 1.6219 40.87 -10.578 -1.9178 33.97 12.733 27.768 32.093 13.274 -11.018 -2.6456 -87.081 50.192 75.272 -4.4007 -15.662 15.266 0.042162 0.017797 0.0099677 -0 0 -0 12.733 27.768 32.093 28.575 -28.492 -25.366 -44.89 -12.552 -2.7542 -6.8615 -6.2195 -7.8324 0.00079071 0.0043193 -0.0030049 -0 0 -0 
-31.597 83.507 11.176 -0 0 -0 12.208 27.946 33.421 -12.028 -4.2465 -8.4548 -12.028 -4.2465 -8.4548 -10.06 -3.6885 -7.0426 -0 0 -0 -14.679 -46.511 -33.815 -19.429 -54.972 -46.529 -17.3 5.0862 8.3583 -0 0 -0 3.7329 -74.709 16.78 73.998 -49.654 68.052 15.274 -7.4441 -17.661 -0.77403 1.8832 41.229 -10.597 -1.7244 34.148 12.208 27.946 33.421 13.613 -10.003 -3.2424 -83.33 49.691 71.985 -5.8905 -14.328 14.452 0.038475 0.029828 0.011808 -0 0 -0 12.208 27.946 33.421 28.292 -29.315 -26.299 -44.923 -12.272 -2.3115 -6.7848 -6.5327 -8.2435 0.001487 0.0039891 -0.0032389 -0 0 -0 
